<?xml version="1.0" encoding="UTF-8" standalone="no"?>
<svg
   viewBox="0 0 120.07 100.73"
   version="1.1"
   id="svg262"
   sodipodi:docname="italian_pizza_logo.svg"
   inkscape:version="1.2.1 (9c6d41e410, 2022-07-14)"
   xmlns:inkscape="http://www.inkscape.org/namespaces/inkscape"
   xmlns:sodipodi="http://sodipodi.sourceforge.net/DTD/sodipodi-0.dtd"
   xmlns="http://www.w3.org/2000/svg"
   xmlns:svg="http://www.w3.org/2000/svg">
  <sodipodi:namedview
     id="namedview264"
     pagecolor="#ffffff"
     bordercolor="#666666"
     borderopacity="1.0"
     inkscape:showpageshadow="2"
     inkscape:pageopacity="0.0"
     inkscape:pagecheckerboard="0"
     inkscape:deskcolor="#d1d1d1"
     showgrid="false"
     inkscape:zoom="5.6090537"
     inkscape:cx="40.648568"
     inkscape:cy="48.314745"
     inkscape:window-width="1278"
     inkscape:window-height="729"
     inkscape:window-x="72"
     inkscape:window-y="0"
     inkscape:window-maximized="0"
     inkscape:current-layer="Main"
     showguides="true">
    <sodipodi:guide
       position="73.096109,51.880407"
       orientation="0,-1"
       id="guide11365"
       inkscape:locked="false" />
  </sodipodi:namedview>
  <defs
     id="defs4">
    <linearGradient
       id="linearGradient5225">
      <stop
         style="stop-color:#4d7744;stop-opacity:1;"
         offset="0"
         id="stop5590" />
      <stop
         style="stop-color:#ffffff;stop-opacity:1;"
         offset="0.27428573"
         id="stop6147" />
      <stop
         style="stop-color:#ffffff;stop-opacity:1;"
         offset="0.70142853"
         id="stop6853" />
      <stop
         style="stop-color:#cc473a;stop-opacity:1;"
         offset="1"
         id="stop5592" />
    </linearGradient>
    <style
       id="style2">.cls-1{fill:#4d7744;}.cls-2{fill:#f7aa5e;}.cls-3{fill:#cc473a;}</style>
    <filter
       style="color-interpolation-filters:sRGB;"
       inkscape:label="Drop Shadow"
       id="filter1867"
       x="-0.094236061"
       y="-0.095271998"
       width="1.1607556"
       height="1.1625228">
      <feFlood
         flood-opacity="0.498039"
         flood-color="rgb(0,0,0)"
         result="flood"
         id="feFlood1857" />
      <feComposite
         in="flood"
         in2="SourceGraphic"
         operator="out"
         result="composite1"
         id="feComposite1859" />
      <feGaussianBlur
         in="composite1"
         stdDeviation="1"
         result="blur"
         id="feGaussianBlur1861" />
      <feOffset
         dx="-1"
         dy="-1"
         result="offset"
         id="feOffset1863" />
      <feComposite
         in="offset"
         in2="SourceGraphic"
         operator="atop"
         result="fbSourceGraphic"
         id="feComposite1865" />
      <feColorMatrix
         result="fbSourceGraphicAlpha"
         in="fbSourceGraphic"
         values="0 0 0 -1 0 0 0 0 -1 0 0 0 0 -1 0 0 0 0 1 0"
         id="feColorMatrix1869" />
      <feFlood
         id="feFlood1871"
         flood-opacity="0.498039"
         flood-color="rgb(0,0,0)"
         result="flood"
         in="fbSourceGraphic" />
      <feComposite
         in2="fbSourceGraphic"
         id="feComposite1873"
         in="flood"
         operator="out"
         result="composite1" />
      <feGaussianBlur
         id="feGaussianBlur1875"
         in="composite1"
         stdDeviation="1"
         result="blur" />
      <feOffset
         id="feOffset1877"
         dx="-1"
         dy="-1"
         result="offset" />
      <feComposite
         in2="fbSourceGraphic"
         id="feComposite1879"
         in="offset"
         operator="atop"
         result="composite2" />
    </filter>
  </defs>
  <title
     id="title6">Asset 1pizza_logo</title>
  <g
     id="Layer_2"
     data-name="Layer 2">
    <g
       id="Main"
       transform="rotate(0.27975864,57.100876,44.475405)"
       style="display:inline">
      <circle
         style="display:inline;fill:#ffffff;fill-opacity:1;stroke:#000000;stroke-width:0.5;stroke-opacity:0"
         id="path401"
         cx="56.871666"
         cy="43.81826"
         r="32.804108"
         transform="rotate(-0.27975864)" />
      <g
         id="g12583">
        <path
           class="cls-3"
           d="m 40.476276,26.962763 a 0.1992153,0.1992153 0 0 0 0.19979,-0.186885 0.18749675,0.18749675 0 0 0 -0.198604,-0.199826 0.1992153,0.1992153 0 0 0 -0.199789,0.186885 0.21093385,0.21093385 0 0 0 0.198603,0.199826 z"
           id="path174"
           style="fill:#4d7744;fill-opacity:1;stroke-width:1" />
        <path
           class="cls-3"
           d="m 39.479989,27.030017 a 0.24608949,0.24608949 0 0 0 -0.233615,-0.246807 0.23437094,0.23437094 0 0 0 -0.23509,0.233651 0.22265239,0.22265239 0 0 0 0.198423,0.258418 0.23437094,0.23437094 0 0 0 0.270282,-0.245262 z"
           id="path176"
           style="fill:#4d7744;fill-opacity:1;stroke-width:1" />
        <path
           class="cls-3"
           d="m 39.417441,28.318872 a 0.1992153,0.1992153 0 1 0 0.186884,0.19979 0.1992153,0.1992153 0 0 0 -0.186884,-0.19979 z"
           id="path178"
           style="fill:#4d7744;fill-opacity:1;stroke-width:1" />
        <path
           class="cls-3"
           d="m 40.555141,27.994241 a 0.15234111,0.15234111 0 0 0 -0.151873,-0.152807 0.14062256,0.14062256 0 0 0 -0.152772,0.140155 0.15234111,0.15234111 0 0 0 0.140119,0.16449 0.15234111,0.15234111 0 0 0 0.164526,-0.151838 z"
           id="path180"
           style="fill:#4d7744;fill-opacity:1;stroke-width:1" />
        <path
           class="cls-3"
           d="m 41.199299,28.113405 a 0.1992153,0.1992153 0 1 0 0.186884,0.199789 0.1992153,0.1992153 0 0 0 -0.186884,-0.199789 z"
           id="path182"
           style="fill:#4d7744;fill-opacity:1;stroke-width:1" />
        <path
           class="cls-3"
           d="m 40.716539,28.861913 a 0.23437094,0.23437094 0 0 0 -0.246808,0.233615 0.24608949,0.24608949 0 0 0 0.480458,0.0015 0.24608949,0.24608949 0 0 0 -0.23365,-0.23509 z"
           id="path184"
           style="fill:#4d7744;fill-opacity:1;stroke-width:1" />
        <path
           class="cls-3"
           d="m 41.412568,27.35235 a 0.15234111,0.15234111 0 0 0 -0.141017,0.128471 0.14062256,0.14062256 0 0 0 0.269525,8.28e-4 0.15234111,0.15234111 0 0 0 -0.128508,-0.129299 z"
           id="path186"
           style="fill:#4d7744;fill-opacity:1;stroke-width:1" />
        <path
           class="cls-3"
           d="m 75.734125,28.07875 a 0.23437094,0.23437094 0 0 0 -0.235089,0.23365 0.22265239,0.22265239 0 0 0 0.221933,0.235053 0.22265239,0.22265239 0 0 0 0.235053,-0.221932 0.23437094,0.23437094 0 0 0 -0.221897,-0.246771 z"
           id="path188"
           style="fill:#4d7744;fill-opacity:1;stroke-width:1" />
        <path
           class="cls-3"
           d="m 75.5375,27.234407 a 0.14062256,0.14062256 0 0 0 -0.140154,-0.152772 0.15234111,0.15234111 0 0 0 -0.152809,0.151873 0.14062256,0.14062256 0 0 0 0.175311,0.152879 0.15234111,0.15234111 0 0 0 0.117652,-0.15198 z"
           id="path190"
           style="fill:#4d7744;fill-opacity:1;stroke-width:1" />
        <path
           class="cls-3"
           d="m 76.204987,27.388797 a 0.18749675,0.18749675 0 0 0 -0.188072,0.18692 0.16405966,0.16405966 0 0 0 0.175203,0.188036 0.17577821,0.17577821 0 0 0 0.199753,-0.175167 0.1992153,0.1992153 0 0 0 -0.186884,-0.199789 z"
           id="path192"
           style="fill:#4d7744;fill-opacity:1;stroke-width:1" />
        <path
           class="cls-3"
           d="m 74.470146,27.547534 a 0.1992153,0.1992153 0 0 0 -0.199789,0.186885 0.1992153,0.1992153 0 0 0 0.186885,0.199789 0.1992153,0.1992153 0 0 0 0.0012,-0.38671 z"
           id="path194"
           style="fill:#4d7744;fill-opacity:1;stroke-width:1" />
        <path
           class="cls-3"
           d="m 75.540628,26.214898 a 0.1992153,0.1992153 0 0 0 0.19979,-0.186885 0.18749675,0.18749675 0 0 0 -0.18692,-0.188071 0.1992153,0.1992153 0 0 0 -0.199791,0.186885 0.18749675,0.18749675 0 0 0 0.186921,0.188071 z"
           id="path196"
           style="fill:#4d7744;fill-opacity:1;stroke-width:1" />
        <path
           class="cls-3"
           d="m 73.414252,35.583256 a 0.17577821,0.17577821 0 1 0 0.175238,0.176316 0.17577821,0.17577821 0 0 0 -0.175238,-0.176316 z"
           id="path198"
           style="fill:#4d7744;fill-opacity:1;stroke-width:1" />
        <path
           class="cls-3"
           d="m 74.53255,26.305554 a 0.24608949,0.24608949 0 0 0 -0.221896,-0.246771 0.25780803,0.25780803 0 0 0 -0.246807,0.233614 0.23437094,0.23437094 0 0 0 0.23365,0.235089 0.22265239,0.22265239 0 0 0 0.235053,-0.221932 z"
           id="path200"
           style="fill:#4d7744;fill-opacity:1;stroke-width:1" />
        <path
           class="cls-3"
           d="m 76.418293,26.616023 a 0.15234111,0.15234111 0 0 0 -0.141018,0.128473 0.12890402,0.12890402 0 0 0 0.128544,0.11758 0.12890402,0.12890402 0 0 0 7.55e-4,-0.246088 z"
           id="path202"
           style="fill:#4d7744;fill-opacity:1;stroke-width:1" />
        <path
           class="cls-3"
           d="m 72.138698,35.005129 a 0.25780803,0.25780803 0 0 0 0.270316,-0.256979 0.26952658,0.26952658 0 0 0 -0.256979,-0.270317 0.25780803,0.25780803 0 0 0 -0.270317,0.25698 0.25780803,0.25780803 0 0 0 0.25698,0.270316 z"
           id="path204"
           style="fill:#4d7744;fill-opacity:1;stroke-width:1" />
        <path
           class="cls-3"
           d="m 71.994445,36.188265 c 0,0 -0.105678,0.06998 -0.152557,0.06984 l 0.292963,8.99e-4 c 0,0 -0.03498,-0.0587 -0.140406,-0.07075 z"
           id="path206"
           style="fill:#4d7744;fill-opacity:1;stroke-width:1" />
        <path
           class="cls-3"
           d="m 70.825904,35.106569 a 0.32811932,0.32811932 0 0 0 -0.315393,-0.329089 0.32811932,0.32811932 0 1 0 -0.002,0.644517 0.32811932,0.32811932 0 0 0 0.317371,-0.315428 z"
           id="path208"
           style="fill:#4d7744;fill-opacity:1;stroke-width:1" />
        <path
           class="cls-3"
           d="m 51.535915,20.211629 a 0.26952658,0.26952658 0 0 0 -0.0016,0.539049 0.26952658,0.26952658 0 0 0 0.270317,-0.256979 0.28124513,0.28124513 0 0 0 -0.268662,-0.28207 z"
           id="path210"
           style="fill:#4d7744;fill-opacity:1;stroke-width:1" />
        <path
           class="cls-3"
           d="m 50.657495,20.056591 a 0.21093385,0.21093385 0 0 0 -0.421865,-0.0013 0.21093385,0.21093385 0 0 0 0.210286,0.211581 0.21093385,0.21093385 0 0 0 0.211579,-0.210286 z"
           id="path212"
           style="fill:#4d7744;fill-opacity:1;stroke-width:1" />
        <path
           class="cls-3"
           d="m 50.876551,21.229123 a 0.32811966,0.32811966 0 1 0 -0.002,0.656236 0.32811966,0.32811966 0 1 0 0.002,-0.656236 z"
           id="path214"
           style="fill:#4d7744;fill-opacity:1;stroke-width:1" />
        <path
           class="cls-3"
           d="m 58.509913,35.021903 a 0.1992153,0.1992153 0 0 0 0.199789,-0.186884 0.1992153,0.1992153 0 0 0 -0.186885,-0.19979 0.1992153,0.1992153 0 1 0 -0.0012,0.386711 z"
           id="path216"
           style="fill:#4d7744;fill-opacity:1;stroke-width:1" />
        <path
           class="cls-3"
           d="m 58.723542,34.143664 a 0.11718547,0.11718547 0 0 0 0.129264,-0.116787 0.12890411,0.12890411 0 0 0 -0.257807,-7.91e-4 0.12890402,0.12890402 0 0 0 0.128543,0.11758 z"
           id="path218"
           style="fill:#4d7744;fill-opacity:1;stroke-width:1" />
        <path
           class="cls-3"
           d="m 51.820287,19.192982 a 0.17577821,0.17577821 0 0 0 -10e-4,0.339837 0.17577821,0.17577821 0 0 0 0.187999,-0.163484 0.17577821,0.17577821 0 0 0 -0.186956,-0.176353 z"
           id="path220"
           style="fill:#4d7744;fill-opacity:1;stroke-width:1" />
        <path
           class="cls-3"
           d="m 58.918813,23.972516 a 0.1992153,0.1992153 0 1 0 -0.186885,-0.19979 0.1992153,0.1992153 0 0 0 0.186885,0.19979 z"
           id="path222"
           style="fill:#4d7744;fill-opacity:1;stroke-width:1" />
        <path
           class="cls-3"
           d="m 58.213941,24.544565 a 0.23437094,0.23437094 0 0 0 0.23365,0.235089 0.22265239,0.22265239 0 0 0 0.235053,-0.221933 0.22265239,0.22265239 0 0 0 -0.221931,-0.235053 0.23437094,0.23437094 0 0 0 -0.246772,0.221897 z"
           id="path224"
           style="fill:#4d7744;fill-opacity:1;stroke-width:1" />
        <path
           class="cls-3"
           d="m 56.996979,23.966619 a 0.1992153,0.1992153 0 0 0 0.186885,0.199789 0.18749675,0.18749675 0 0 0 0.188071,-0.18692 0.16405966,0.16405966 0 0 0 -0.175201,-0.188034 0.18749675,0.18749675 0 0 0 -0.199755,0.175165 z"
           id="path226"
           style="fill:#4d7744;fill-opacity:1;stroke-width:1" />
        <path
           class="cls-3"
           d="m 57.012402,22.759651 a 0.24608949,0.24608949 0 0 0 0.246772,-0.221897 0.23437094,0.23437094 0 0 0 -0.233652,-0.235089 0.22265239,0.22265239 0 0 0 -0.235053,0.221933 0.22265239,0.22265239 0 0 0 0.221933,0.235053 z"
           id="path228"
           style="fill:#4d7744;fill-opacity:1;stroke-width:1" />
        <path
           class="cls-3"
           d="m 49.109288,20.497147 a 0.25780803,0.25780803 0 0 0 -0.270317,0.25698 0.26952658,0.26952658 0 0 0 0.527332,0.0016 0.25780803,0.25780803 0 0 0 -0.257015,-0.258598 z"
           id="path230"
           style="fill:#4d7744;fill-opacity:1;stroke-width:1" />
        <path
           class="cls-3"
           d="m 58.14647,23.618589 a 0.15234111,0.15234111 0 1 0 8.99e-4,-0.292963 0.15234111,0.15234111 0 1 0 -8.99e-4,0.292963 z"
           id="path232"
           style="fill:#4d7744;fill-opacity:1;stroke-width:1" />
        <path
           class="cls-3"
           d="m 49.196675,18.751344 a 0.33983786,0.33983786 0 0 0 -0.315357,-0.340808 0.32811932,0.32811932 0 1 0 0.315357,0.340808 z"
           id="path234"
           style="fill:#4d7744;fill-opacity:1;stroke-width:1" />
        <path
           class="cls-3"
           d="m 57.80522,35.53536 a 0.23437094,0.23437094 0 0 0 0.233652,0.235089 0.23437094,0.23437094 0 0 0 0.0014,-0.457021 0.23437094,0.23437094 0 0 0 -0.235053,0.221932 z"
           id="path236"
           style="fill:#4d7744;fill-opacity:1;stroke-width:1" />
        <path
           class="cls-3"
           d="m 50.544626,18.650013 a 0.26952658,0.26952658 0 0 0 0.270316,-0.25698 0.25780803,0.25780803 0 0 0 -0.256981,-0.270316 0.25780803,0.25780803 0 0 0 -0.27028,0.245261 0.26952658,0.26952658 0 0 0 0.256945,0.282035 z"
           id="path238"
           style="fill:#4d7744;fill-opacity:1;stroke-width:1" />
        <path
           class="cls-3"
           d="m 57.811442,33.50806 a 0.1992153,0.1992153 0 0 0 0.199789,-0.186884 0.18749675,0.18749675 0 0 0 -0.18692,-0.188072 0.1992153,0.1992153 0 0 0 -0.199789,0.186885 0.18749675,0.18749675 0 0 0 0.18692,0.188071 z"
           id="path240"
           style="fill:#4d7744;fill-opacity:1;stroke-width:1" />
        <path
           class="cls-3"
           d="m 59.144124,23.106031 a 0.12890402,0.12890402 0 0 0 0.129299,-0.128508 0.14062256,0.14062256 0 0 0 -0.128508,-0.129299 0.12890402,0.12890402 0 0 0 -0.129299,0.128508 0.14062256,0.14062256 0 0 0 0.128508,0.129299 z"
           id="path242"
           style="fill:#4d7744;fill-opacity:1;stroke-width:1" />
        <path
           class="cls-3"
           d="m 58.220342,22.458673 a 0.18749675,0.18749675 0 0 0 0.199753,-0.175165 0.1992153,0.1992153 0 0 0 -0.38671,-0.0012 0.18749675,0.18749675 0 0 0 0.186957,0.176352 z"
           id="path244"
           style="fill:#4d7744;fill-opacity:1;stroke-width:1" />
        <path
           class="cls-3"
           d="m 56.764433,34.82905 a 0.1992153,0.1992153 0 1 0 -0.0012,0.38671 0.1992153,0.1992153 0 0 0 0.0012,-0.38671 z"
           id="path246"
           style="fill:#4d7744;fill-opacity:1;stroke-width:1" />
        <path
           class="cls-3"
           d="m 57.73757,34.667975 a 0.15234111,0.15234111 0 0 0 0.152809,-0.151872 0.15234111,0.15234111 0 0 0 -0.140155,-0.152773 0.15234111,0.15234111 0 0 0 -0.152807,0.151874 0.14062256,0.14062256 0 0 0 0.140153,0.152771 z"
           id="path248"
           style="fill:#4d7744;fill-opacity:1;stroke-width:1" />
        <path
           class="cls-3"
           d="m 56.850274,33.587142 a 0.25780803,0.25780803 0 0 0 -0.233615,-0.246808 0.23437094,0.23437094 0 0 0 -0.23509,0.23365 0.22265239,0.22265239 0 0 0 0.221933,0.235053 0.24608949,0.24608949 0 0 0 0.246772,-0.221895 z"
           id="path250"
           style="fill:#4d7744;fill-opacity:1;stroke-width:1" />
        <path
           class="cls-3"
           d="m 69.018056,36.143978 a 2.7655771,2.7655771 0 0 1 5.519086,0.122402 L 86.51344,36.30313 A 30.468222,30.468222 0 0 0 72.83539,18.003575 l -10.661257,18.22487 6.843599,0.021 z m 6.279827,-11.019654 a 1.9804344,1.9804344 0 1 1 -2.033196,1.915612 1.9804344,1.9804344 0 0 1 2.033196,-1.915612 z"
           id="path254"
           style="fill:#4d7744;fill-opacity:1;stroke-width:1" />
        <path
           class="cls-3"
           d="m 55.594022,34.356714 a 1.9804344,1.9804344 0 1 1 2.712901,1.89502 l 2.894467,0.0089 10.850156,-18.681315 A 30.573689,30.573689 0 0 0 42.239917,17.417513 l 10.676607,18.782525 3.843666,0.01179 a 1.9569973,1.9569973 0 0 1 -1.166168,-1.855119 z m 2.383611,-13.000333 a 1.9804344,1.9804344 0 1 1 -2.033232,1.927329 1.9687159,1.9687159 0 0 1 2.033232,-1.927329 z m -5.08151,-1.421826 a 2.7655771,2.7655771 0 1 1 -2.67487,-2.83239 2.7538585,2.7538585 0 0 1 2.721743,2.832534 z"
           id="path256"
           style="fill:#4d7744;fill-opacity:1;stroke-width:1" />
        <path
           class="cls-3"
           d="m 39.184537,35.478223 a 2.6718287,2.6718287 0 0 1 1.708887,0.661486 L 51.990835,36.173763 41.50043,17.81368 a 29.144026,29.144026 0 0 0 -3.440996,2.42691 30.24557,30.24557 0 0 0 -10.384469,15.858561 l 9.679474,0.02971 a 2.8358884,2.8358884 0 0 1 1.830098,-0.650625 z m 1.060928,-9.67631 a 2.0273086,2.0273086 0 1 1 -2.091968,1.974025 2.0390272,2.0390272 0 0 1 2.115334,-1.950516 z"
           id="path258"
           style="fill:#4d7744;fill-opacity:1;stroke-width:1" />
      </g>
      <path
         id="path252"
         style="display:inline;fill:#f78c5e;fill-opacity:1;stroke-width:1;filter:url(#filter1867)"
         class="cls-3"
         d="m 57.070973,7.4098604 c -0.119953,-0.031771 0.0093,0.053805 0,0 z m -1.93074,0.189117 C 51.674623,8.7272176 47.603758,6.9382968 44.593949,9.3458049 40.887404,11.630563 35.781238,11.204538 33.198962,15.28042 c -3.6529,1.877333 -3.908476,6.101601 -6.612362,8.604654 -1.294136,3.958641 -4.070631,7.522976 -4.161385,11.758741 -1.147164,3.191007 -2.006454,7.980657 -0.625985,11.800072 -0.378621,3.556953 0.163613,6.784542 2.59545,9.542128 -0.29341,3.866246 3.309781,5.758751 4.781702,8.881055 1.760303,4.348428 5.913025,6.72929 9.683187,9.093454 1.345804,0.320794 3.082981,-0.415874 4.141875,0.6458 4.460717,1.64498 8.912476,3.757323 13.81314,2.897433 4.934744,0.815608 10.237878,-0.290541 14.810552,-2.035231 3.664374,-2.185864 8.451066,-3.260257 11.190973,-6.916052 3.002828,-2.489391 4.871977,-5.907639 5.681347,-9.67434 0.980817,-2.642349 4.162094,-5.818601 3.03349,-8.348896 -0.57322,-2.51389 1.598246,-4.482666 1.543651,-7.064262 0.503326,-2.83274 -0.164714,-5.628231 -1.102951,-8.281822 -0.05078,-3.194314 -0.463269,-6.206645 -2.49539,-8.650029 C 88.333989,24.554382 85.776931,22.437141 84.277481,19.63654 82.160405,15.780938 77.896898,12.842661 73.776949,11.552949 72.24828,11.170153 70.195406,11.9195 69.165004,10.637957 65.609368,8.2191684 61.206778,8.0845437 57.049588,8.2302871 56.317447,8.2218675 55.845822,7.6601932 55.140233,7.5989774 Z M 69.20601,10.635804 c 0.02248,0.02699 0.106058,-0.01911 0,0 z M 57.067423,12.282983 C 73.156334,12.032244 88.25867,25.896485 88.513997,42.065341 89.092634,54.696149 81.43288,67.448593 69.441395,72.043589 49.726177,81.333438 24.317591,64.558018 25.705544,42.647413 25.396608,25.936554 40.59221,11.929551 57.067423,12.282983 Z" />
    </g>
    <g
       id="g11003"
       style="fill:#4d7744;fill-opacity:1;stroke-width:0.950402"
       transform="matrix(1.0521862,0,0,1.0521862,-5.4544991,-1.2473185)">
      <g
         id="g12521"
         transform="matrix(0.82594858,0.0040299,-0.0040329,0.82533355,12.632947,4.1888745)"
         style="display:inline;stroke-width:1.1511">
        <g
           id="g12538"
           style="stroke-width:1.1511">
          <path
             id="path10955"
             style="display:inline;fill:#cc473a;fill-opacity:1;stroke:#cc473a;stroke-width:0.575547;stroke-dasharray:none;stroke-opacity:1"
             d="m 23.105457,39.409048 a 34.573163,34.58693 89.720239 0 0 -0.635842,6.224818 34.573163,34.58693 89.720239 0 0 34.58683,34.572914 34.573163,34.58693 89.720239 0 0 34.586814,-34.573198 34.573163,34.58693 89.720239 0 0 -0.626416,-6.556129 l -14.439565,0.0705 A 20.645586,20.653807 89.720239 0 1 77.71091,45.868546 20.645586,20.653807 89.720239 0 1 57.05603,66.51398 20.645586,20.653807 89.720239 0 1 36.402466,45.869197 20.645586,20.653807 89.720239 0 1 37.505516,39.33873 Z" />
          <g
             aria-label="Italian Pizza"
             id="text3398"
             style="font-size:20px;line-height:1.25;font-family:Courgette;-inkscape-font-specification:Courgette;letter-spacing:1.5px;word-spacing:0px;display:inline;fill:#ffffff;stroke-width:1.2522"
             transform="matrix(0.91943105,-1.7868492e-6,-1.7868492e-6,0.91906511,4.6026282,4.8339304)">
            <g
               id="g12504"
               style="stroke-width:1.2522">
              <path
                 d="m 33.072805,39.748118 -0.478078,6.231688 -1.557922,-0.119519 0.119519,-1.557922 -8.958052,-0.687237 -0.119519,1.557922 -1.557923,-0.119519 0.478078,-6.231689 1.557922,0.11952 -0.119519,1.557922 8.958052,0.687236 0.119519,-1.557922 z"
                 style="font-family:'Orelega One';-inkscape-font-specification:'Orelega One';stroke-width:1.2522"
                 id="path12467" />
              <path
                 d="m 31.839416,47.880153 0.159663,0.963422 -1.926844,0.319325 0.447056,2.697582 -1.541475,0.255461 -0.447056,-2.697582 -5.009795,0.830247 q -0.327563,0.05429 -0.518815,0.274058 -0.190452,0.22459 -0.124192,0.62441 0.07424,0.447991 0.419977,0.712406 0.350551,0.263617 0.927725,0.252105 l -0.0011,1.188039 q -0.575577,0.02115 -1.091615,-0.106158 -0.510424,-0.123286 -0.940444,-0.388581 -0.425202,-0.266093 -0.722602,-0.716697 -0.291784,-0.446585 -0.389977,-1.03909 -0.238696,-1.440316 0.29437,-2.375007 0.538682,-0.930673 1.699606,-1.123067 l 5.009795,-0.830247 -0.159663,-0.963422 1.541475,-0.25546 0.03193,0.192684 q 0.12294,0.741835 0.641047,1.240002 0.518107,0.498168 1.70092,0.94557 z"
                 style="font-family:'Orelega One';-inkscape-font-specification:'Orelega One';stroke-width:1.2522"
                 id="path12469" />
              <path
                 d="m 31.209919,60.976886 -3.887519,1.886992 0.426439,0.878535 -1.405657,0.682302 -1.328357,-2.736637 0.723912,-0.834445 q -0.858815,-0.136752 -1.383865,-0.614625 -0.522919,-0.47348 -1.036778,-1.532115 -0.266524,-0.549085 -0.303523,-1.117311 -0.03926,-0.5617 0.128144,-1.055458 0.169537,-0.489366 0.539083,-0.902131 0.371679,-0.408373 0.8988,-0.664236 0.909284,-0.441364 1.852104,-0.01973 0.947212,0.419503 1.484525,1.526458 0.432835,0.891713 0.545103,1.559094 0.11666,0.66525 -0.04977,1.261658 l 1.862495,-0.90405 q 0.395341,-0.191897 0.605597,-0.429646 0.21678,-0.235488 0.252868,-0.518959 0.04048,-0.285604 -0.03248,-0.581276 -0.07296,-0.295671 -0.254195,-0.669049 -0.144989,-0.298702 -0.389648,-0.478465 -0.219426,0.274765 -0.535698,0.428283 -0.584226,0.283582 -1.197564,0.0711 -0.606813,-0.210224 -0.890395,-0.79445 -0.283582,-0.584226 -0.07549,-1.195432 0.214618,-0.608945 0.798843,-0.892527 0.298702,-0.144989 0.6177,-0.158711 0.32113,-0.0093 0.619014,0.101178 0.26978,0.08615 0.506422,0.204677 0.241036,0.116391 0.524587,0.331552 0.290075,0.217422 0.550893,0.50875 0.260818,0.291328 0.546068,0.733626 0.291774,0.444558 0.564695,1.006821 0.353944,0.729184 0.450003,1.474992 0.09606,0.745809 -0.06009,1.396933 -0.15615,0.651125 -0.583956,1.189867 -0.427806,0.538742 -1.082315,0.856438 z m -4.536856,-0.837299 0.60619,-0.294243 q 0.126972,-0.398145 0.136367,-0.826062 0.01592,-0.425656 -0.124804,-0.715572 -0.302771,-0.62376 -0.637287,-0.77619 -0.330123,-0.154562 -0.795747,0.07145 -0.557869,0.270789 -0.71482,0.618354 -0.156951,0.347566 0.133027,0.94497 0.164179,0.338236 0.556392,0.598351 0.398738,0.262375 0.840682,0.378942 z"
                 style="font-family:'Orelega One';-inkscape-font-specification:'Orelega One';stroke-width:1.2522"
                 id="path12471" />
              <path
                 d="m 37.108871,58.40477 2.413382,2.818979 -8.011834,6.859087 0.6351,0.741837 -1.186938,1.016161 -3.048483,-3.560815 1.186938,-1.016162 0.635101,0.741837 6.824896,-5.842926 -0.635101,-0.741837 z"
                 style="font-family:'Orelega One';-inkscape-font-specification:'Orelega One';stroke-width:1.2522"
                 id="path12473" />
              <path
                 d="m 39.811879,64.353031 q -0.06995,-0.641858 0.334092,-1.150277 0.40404,-0.508419 1.042076,-0.581406 0.644896,-0.07377 1.153315,0.330269 0.508419,0.404041 0.578368,1.045899 0.07681,0.641073 -0.327231,1.149492 -0.40404,0.50842 -1.048937,0.582191 -0.638035,0.07299 -1.146454,-0.331054 -0.508419,-0.40404 -0.585229,-1.045114 z m -1.614215,0.04565 2.905252,2.308803 -4.617604,5.810504 0.76454,0.607579 -0.972127,1.223264 -3.669793,-2.916381 0.972128,-1.223264 0.76454,0.607579 3.645477,-4.58724 -0.76454,-0.607579 z"
                 style="font-family:'Orelega One';-inkscape-font-specification:'Orelega One';stroke-width:1.2522"
                 id="path12475" />
              <path
                 d="m 48.153619,73.786288 -1.733007,3.958564 0.89459,0.39164 -0.626624,1.431345 -2.78665,-1.219959 0.0092,-1.104654 q -0.742138,0.453314 -1.45173,0.430497 -0.705118,-0.02086 -1.7831,-0.492786 -0.559119,-0.244775 -0.956037,-0.65307 -0.394404,-0.401865 -0.587483,-0.88616 -0.188606,-0.482336 -0.175332,-1.036199 0.01775,-0.551904 0.252731,-1.088659 0.405347,-0.925901 1.396281,-1.216994 0.992892,-0.295566 2.120076,0.1979 0.908009,0.397515 1.426542,0.832401 0.520491,0.430413 0.780933,0.99217 l 0.830277,-1.896532 q 0.176238,-0.402566 0.181906,-0.719898 0.0121,-0.319847 -0.144413,-0.558934 -0.154554,-0.243559 -0.401947,-0.421158 -0.247394,-0.177598 -0.627595,-0.344045 -0.304161,-0.133158 -0.606961,-0.111143 0.01138,0.351446 -0.129612,0.673499 -0.26044,0.594902 -0.864969,0.831289 -0.598097,0.233872 -1.193,-0.02657 -0.594903,-0.26044 -0.833248,-0.860496 -0.231913,-0.60257 0.02853,-1.197473 0.133158,-0.30416 0.366947,-0.521624 0.238261,-0.215506 0.536609,-0.324754 0.261163,-0.109536 0.51812,-0.17294 0.258916,-0.06788 0.614279,-0.0882 0.361793,-0.02284 0.749291,0.02954 0.387498,0.05238 0.891561,0.203755 0.510493,0.148864 1.083031,0.399514 0.742511,0.325061 1.29961,0.830133 0.557099,0.505072 0.860869,1.101788 0.303769,0.596716 0.327928,1.284232 0.02416,0.687515 -0.267613,1.353985 z m -3.995044,2.307325 0.270231,-0.617267 q -0.161789,-0.385313 -0.432351,-0.716971 -0.264131,-0.334172 -0.559346,-0.463414 -0.63516,-0.278064 -0.988585,-0.176938 -0.351466,0.09665 -0.559035,0.570786 -0.248692,0.568065 -0.142536,0.934353 0.106155,0.366287 0.714477,0.632602 0.344417,0.150781 0.811624,0.09414 0.473638,-0.05916 0.885521,-0.257288 z"
                 style="font-family:'Orelega One';-inkscape-font-specification:'Orelega One';stroke-width:1.2522"
                 id="path12477" />
              <path
                 d="m 56.201366,71.602457 q 0.681476,0.05378 1.177985,0.279083 0.49651,0.225305 0.796908,0.577176 0.300782,0.347003 0.460792,0.864123 0.165262,0.512636 0.197818,1.093169 0.03781,0.576048 -0.0202,1.311068 l -0.291935,3.699437 0.973536,0.07682 -0.12292,1.557657 -4.672973,-0.36876 0.12292,-1.557658 0.973536,0.07683 0.3073,-3.894143 q 0.06069,-0.769094 -0.04667,-1.208589 -0.102492,-0.439112 -0.35267,-0.620488 -0.245311,-0.180992 -0.693138,-0.216331 -0.408885,-0.03227 -0.864513,0.279535 -0.455629,0.311803 -0.88896,0.899652 l -0.381959,4.529889 0.973536,0.07682 -0.12292,1.557658 -4.672972,-0.36876 0.12292,-1.557658 0.973536,0.07682 0.46095,-5.841216 -0.973536,-0.07682 0.12292,-1.557657 3.022829,0.238542 0.577377,1.372918 q 0.205841,-0.311921 0.459848,-0.551471 0.259259,-0.244032 0.602295,-0.432474 0.348288,-0.192925 0.800466,-0.274794 0.452178,-0.08187 0.977887,-0.04038 z"
                 style="font-family:'Orelega One';-inkscape-font-specification:'Orelega One';stroke-width:1.2522"
                 id="path12479" />
              <path
                 d="m 68.624835,79.34733 -0.716181,-1.388701 1.388701,-0.716181 -4.118042,-7.985031 -1.388701,0.716181 -0.716181,-1.388701 4.513278,-2.327589 q 1.575308,-0.812418 2.52076,-1.173647 0.949791,-0.363467 1.558521,-0.4082 0.610831,-0.05131 1.248874,0.152547 0.572265,0.182842 1.058636,0.657206 0.488472,0.467786 0.824182,1.11874 0.273045,0.529442 0.366933,1.052388 0.09599,0.516368 0.02333,0.993351 -0.07055,0.470406 -0.294091,0.931804 -0.221434,0.45482 -0.563506,0.867472 -0.342072,0.412651 -0.813188,0.809445 -0.466776,0.394555 -1.006181,0.744158 -0.537303,0.343025 -1.175238,0.672021 l -0.69435,0.35809 1.432362,2.777402 1.735877,-0.895226 0.716181,1.388701 z m 1.301379,-7.703348 0.69435,-0.358091 q 2.083052,-1.074271 1.098302,-2.983735 -0.170093,-0.329817 -0.356589,-0.574259 -0.182157,-0.24668 -0.433477,-0.435716 -0.251319,-0.189037 -0.52955,-0.25981 -0.278231,-0.07077 -0.637824,-0.01168 -0.359594,0.05909 -0.763185,0.26723 l -1.041526,0.537136 z"
                 style="font-family:'Orelega One';-inkscape-font-specification:'Orelega One';stroke-width:1.2522"
                 id="path12481" />
              <path
                 d="m 74.505631,64.158427 q -0.645434,-0.01702 -1.09489,-0.48577 -0.449455,-0.468752 -0.435962,-1.110807 0.01364,-0.648958 0.482391,-1.098414 0.468752,-0.449455 1.114186,-0.432437 0.645579,0.01011 1.095035,0.478866 0.449455,0.468752 0.435817,1.11771 -0.01349,0.642055 -0.482246,1.091511 -0.468752,0.449455 -1.114331,0.439341 z m -0.171882,1.605687 2.678583,-2.568316 5.136633,5.357167 0.70489,-0.675872 1.081396,1.127824 -3.383474,3.244189 -1.081396,-1.127825 0.70489,-0.675872 -4.055235,-4.229343 -0.704891,0.675873 z"
                 style="font-family:'Orelega One';-inkscape-font-specification:'Orelega One';stroke-width:1.2522"
                 id="path12483" />
              <path
                 d="m 78.077757,62.411233 4.059269,-6.445454 0.760233,0.478785 2.863074,6.22908 q 0.140759,0.307926 0.346218,0.916271 l 1.477991,-2.346807 -1.983217,-1.249005 0.832671,-1.322145 3.305361,2.081677 -4.163353,6.610722 -0.760233,-0.478786 -2.863074,-6.229079 q -0.14642,-0.317262 -0.325402,-0.949325 l -1.394723,2.214592 1.983217,1.249006 -0.832671,1.322144 z"
                 style="font-family:'Orelega One';-inkscape-font-specification:'Orelega One';stroke-width:1.2522"
                 id="path12485" />
              <path
                 d="m 82.411455,55.457864 2.021598,-7.344024 0.866218,0.238445 4.542312,5.134786 q 0.223803,0.254055 0.596429,0.776976 l 0.736069,-2.673978 -2.259699,-0.62203 0.414686,-1.506467 3.766167,1.036717 -2.073434,7.532332 -0.866219,-0.238445 -4.542311,-5.134785 q -0.231923,-0.261355 -0.586063,-0.814638 l -0.6946,2.523331 2.259699,0.622031 -0.414686,1.506466 z"
                 style="font-family:'Orelega One';-inkscape-font-specification:'Orelega One';stroke-width:1.2522"
                 id="path12487" />
              <path
                 d="m 87.394192,39.623336 4.318584,-0.152867 -0.03455,-0.975951 1.561522,-0.05527 0.107611,3.040089 -0.999616,0.470226 q 0.730063,0.472516 1.016888,1.121956 0.286653,0.64456 0.328281,1.820581 0.02159,0.60997 -0.174463,1.144584 -0.191348,0.529561 -0.544202,0.913377 -0.353027,0.378937 -0.857974,0.606903 -0.50512,0.223086 -1.09069,0.243814 -1.01011,0.03576 -1.701739,-0.731274 -0.696509,-0.766856 -0.740037,-1.996555 -0.03506,-0.990591 0.132273,-1.646335 0.162458,-0.655571 0.555948,-1.133657 l -2.069017,0.07324 q -0.439178,0.01555 -0.727645,0.147904 -0.29352,0.127651 -0.441208,0.372286 -0.152568,0.244808 -0.205469,0.544719 -0.0529,0.29991 -0.03822,0.71469 0.01175,0.331823 0.162759,0.595201 0.311829,-0.1625 0.663172,-0.174937 0.649008,-0.02297 1.123941,0.419487 0.469882,0.437754 0.492855,1.086761 0.02297,0.649008 -0.414608,1.123769 -0.442633,0.470054 -1.091641,0.493027 -0.331823,0.01175 -0.629099,-0.104764 -0.29745,-0.12139 -0.525157,-0.342965 Q 85.360838,47.053432 85.192379,46.849303 85.01904,46.645346 84.84678,46.333862 84.669468,46.017671 84.548813,45.64573 84.428159,45.273788 84.34624,44.7539 q -0.08697,-0.524595 -0.109081,-1.149204 -0.02867,-0.81004 0.185216,-1.530948 0.213889,-0.720908 0.620119,-1.25319 0.406229,-0.532282 1.015422,-0.851884 0.609192,-0.319601 1.336276,-0.345338 z m 3.810223,2.601216 -0.673406,0.02384 q -0.277196,0.312736 -0.458914,0.700267 -0.18677,0.382823 -0.175369,0.704887 0.02453,0.692925 0.268774,0.96766 0.239367,0.274907 0.756621,0.256598 0.619729,-0.02194 0.903878,-0.276288 0.284149,-0.254352 0.260658,-0.917999 -0.0133,-0.375741 -0.266745,-0.772297 -0.258497,-0.401263 -0.615497,-0.686664 z"
                 style="font-family:'Orelega One';-inkscape-font-specification:'Orelega One';stroke-width:1.2522"
                 id="path12489" />
            </g>
          </g>
        </g>
      </g>
    </g>
    <g
       id="g12646"
       style="fill:#4d7744;fill-opacity:1;stroke-width:1.18562"
       transform="matrix(0.84344132,0,0,0.84344132,7.8741386,5.7030709)">
      <path
         class="cls-1"
         d="m 50.626493,53.956863 a 0.31885945,0.31885945 0 1 0 0,0.632573 0.31885945,0.31885945 0 0 0 0,-0.632573 z"
         id="path8"
         style="fill:#cc473a;fill-opacity:1;stroke-width:1.18562" />
      <path
         class="cls-1"
         d="m 50.626493,53.622576 a 0.66343339,0.66343339 0 1 0 0.65829,0.658286 0.6582905,0.6582905 0 0 0 -0.65829,-0.658286 z m 0,1.208577 a 0.55028969,0.55028969 0 1 1 0.55029,-0.550291 0.55028969,0.55028969 0 0 1 -0.55029,0.540004 z"
         id="path10"
         style="fill:#cc473a;fill-opacity:1;stroke-width:1.18562" />
      <path
         class="cls-1"
         d="m 50.359063,53.499142 c 0,0 0,0 0,0 a 1.9182996,1.9182996 0 0 1 -1.414296,0.514293 1.2342947,1.2342947 0 0 0 -0.072,0.272572 1.2702949,1.2702949 0 0 0 0.072,0.612002 2.1291583,2.1291583 0 0 1 1.640584,0.236573 1.995443,1.995443 0 0 1 0.709718,0.797153 1.3525813,1.3525813 0 0 0 0.51429,-0.267432 1.2445804,1.2445804 0 0 0 0.23143,-0.246861 2.0983009,2.0983009 0 0 1 -0.632576,-1.45544 2.1754444,2.1754444 0 0 1 0.06172,-0.478286 z m 0.26743,1.434869 a 0.66343339,0.66343339 0 1 1 0,-1.311435 0.66343339,0.66343339 0 0 1 0,1.321723 z"
         id="path12"
         style="fill:#cc473a;fill-opacity:1;stroke-width:1.18562" />
      <path
         class="cls-1"
         d="m 52.297934,54.255148 a 1.6765838,1.6765838 0 1 1 -3.353167,0 1.7074409,1.7074409 0 0 1 0.180001,-0.756006 h -0.514289 a 2.1548727,2.1548727 0 1 0 4.170888,0.756006 2.0571578,2.0571578 0 0 0 -0.144002,-0.756006 h -0.51429 a 1.7074409,1.7074409 0 0 1 0.174859,0.756006 z"
         id="path14"
         style="fill:#cc473a;fill-opacity:1;stroke-width:1.18562" />
      <path
         class="cls-1"
         d="m 52.858509,54.255148 a 2.2371592,2.2371592 0 0 1 -4.474318,0 2.1445869,2.1445869 0 0 1 0.133716,-0.756006 h -1.06458 a 4.8446066,4.8446066 0 0 0 -0.19543,1.15201 v 0.174858 a 1.6354405,1.6354405 0 0 1 0,-0.174858 3.898314,3.898314 0 0 1 0,-0.483429 3.7645987,3.7645987 0 0 1 0.09772,-0.663437 h -0.272574 a 3.697741,3.697741 0 0 0 -0.08229,0.771433 3.651455,3.651455 0 1 0 7.297767,0 3.3480242,3.3480242 0 0 0 -0.08229,-0.771433 h -1.491433 a 2.288588,2.288588 0 0 1 0.133715,0.750862 z m 0.339431,2.082874 a 4.0577437,4.0577437 0 0 0 0.673719,-1.229154 c 0.06172,-0.174857 0.09772,-0.313716 0.123431,-0.416573 l 0.03086,-0.154288 a 1.1982944,1.1982944 0 0 1 0,0.159431 2.7257341,2.7257341 0 0 1 -0.07714,0.426862 3.35831,3.35831 0 0 1 -0.632577,1.296009 3.6000261,3.6000261 0 0 1 -1.146865,0.910294 c -0.164573,0.08228 -0.303431,0.138854 -0.396003,0.174856 l -0.154286,0.05142 0.143999,-0.06686 c 0.09257,-0.05142 0.221146,-0.118285 0.375433,-0.215999 a 4.5051755,4.5051755 0 0 0 1.059436,-0.936007 z"
         id="path16"
         style="fill:#cc473a;fill-opacity:1;stroke-width:1.18562" />
      <path
         class="cls-1"
         d="m 70.210635,53.998004 a 0.32400235,0.32400235 0 0 0 -0.42686,0.13886 0.31885945,0.31885945 0 1 0 0.42686,-0.13886 z"
         id="path18"
         style="fill:#cc473a;fill-opacity:1;stroke-width:1.18562" />
      <path
         class="cls-1"
         d="m 70.364922,53.689432 a 0.66343339,0.66343339 0 1 0 -0.591433,1.182862 0.66343339,0.66343339 0 0 0 0.591433,-1.182862 z m -0.545146,1.085149 a 0.55028969,0.55028969 0 1 1 0.740576,-0.246857 0.55543258,0.55543258 0 0 1 -0.740576,0.246857 z"
         id="path20"
         style="fill:#cc473a;fill-opacity:1;stroke-width:1.18562" />
      <path
         class="cls-1"
         d="m 70.884355,54.368294 a 1.9131567,1.9131567 0 0 1 0.745719,-0.792009 1.1057222,1.1057222 0 0 0 -0.601718,-0.720003 1.8308705,1.8308705 0 0 1 -0.858864,0.62229 1.8925851,1.8925851 0 0 1 -1.49144,-0.180001 1.3782958,1.3782958 0 0 0 -0.185143,0.216003 1.3011523,1.3011523 0 0 0 -0.21086,0.576005 2.1085867,2.1085867 0 0 1 1.362867,0.94629 2.0108718,2.0108718 0 0 1 0.272574,1.028577 1.3782958,1.3782958 0 0 0 0.58629,0 1.4451534,1.4451534 0 0 0 0.324002,-0.118284 2.0571578,2.0571578 0 0 1 0.05657,-1.578868 z m -1.110866,0.514288 a 0.66343339,0.66343339 0 1 1 0.910293,-0.303429 0.6582905,0.6582905 0 0 1 -0.910293,0.293141 z"
         id="path22"
         style="fill:#cc473a;fill-opacity:1;stroke-width:1.18562" />
      <path
         class="cls-1"
         d="m 70.082063,52.105419 a 2.1548727,2.1548727 0 1 0 2.144587,2.154873 2.1600157,2.1600157 0 0 0 -2.144587,-2.154873 z m 0,3.831455 a 1.6765836,1.6765836 0 1 1 1.676583,-1.676582 1.6765836,1.6765836 0 0 1 -1.676583,1.676582 z"
         id="path24"
         style="fill:#cc473a;fill-opacity:1;stroke-width:1.18562" />
      <path
         class="cls-1"
         d="m 50.240777,48.124821 c -2.442876,0.30343 -4.479462,2.530302 -4.628606,5.256037 h 10.630363 c -0.23143,-3.30174 -3.137166,-5.616043 -6.001757,-5.256037 z"
         id="path26"
         style="fill:#cc473a;fill-opacity:1;stroke-width:1.18562" />
      <path
         class="cls-1"
         d="M 67.397472,41.279626 C 67.335757,41.01734 67.238042,40.61105 66.960327,40.52362 a 0.99772153,0.99772153 0 0 0 -0.514291,0.07715 c -0.180001,0.05657 -0.365144,0.123429 -0.514289,0.19543 a 6.336046,6.336046 0 0 0 -0.802291,0.375431 c -0.190288,0.102857 -0.51429,0.236573 -0.51429,0.488575 a 0.44743182,0.44743182 0 0 0 0,0.144 0.42686024,0.42686024 0 0 0 0.12343,0.205717 0.63257601,0.63257601 0 0 1 0.545146,-0.07714 0.59143289,0.59143289 0 0 1 0.385718,0.540003 0.4731463,0.4731463 0 0 1 0,0.154288 0.51428945,0.51428945 0 0 1 -0.221145,0.293144 0.8434347,0.8434347 0 0 0 0.102856,0.149142 l 1.8463,-0.143998 a 3.3531671,3.3531671 0 0 0 0,-1.645727 z"
         id="path28"
         style="fill:#cc473a;fill-opacity:1;stroke-width:1.18562" />
      <path
         class="cls-1"
         d="m 65.078027,41.97906 a 0.48343208,0.48343208 0 0 0 -0.457718,0.334289 0.3651455,0.3651455 0 0 1 0.221145,-0.072 0.3754313,0.3754313 0 0 1 0.185144,0.704576 h 0.05143 a 0.48857496,0.48857496 0 0 0 0,-0.972006 z"
         id="path30"
         style="fill:#cc473a;fill-opacity:1;stroke-width:1.18562" />
      <circle
         class="cls-1"
         cx="64.800308"
         cy="42.663063"
         r="0.33428812"
         id="circle32"
         style="fill:#cc473a;fill-opacity:1;stroke-width:1.18562" />
      <path
         class="cls-1"
         d="m 66.317463,42.107632 c -0.185143,-1.481153 -0.720004,-2.54059 -1.306294,-2.571447 a 0.68914787,0.68914787 0 0 0 -0.437146,0.149144 l -0.113144,-0.164572 a 0.84857758,0.84857758 0 0 1 0.565719,-0.195431 c 0.694291,0.04629 1.290865,1.157152 1.491438,2.756591 z"
         id="path34"
         style="fill:#cc473a;fill-opacity:1;stroke-width:1.18562" />
      <path
         class="cls-1"
         d="m 64.445451,40.564764 h 0.03086 c -0.05657,0 -0.06686,-0.06172 -0.06686,-0.118286 v -1.841157 c 0,-0.05657 0,-0.123429 0.06686,-0.123429 v 0 a 0.10285789,0.10285789 0 0 1 0.09257,0.108004 3.2863096,3.2863096 0 0 1 0.133716,0.869149 3.2091662,3.2091662 0 0 1 -0.138858,0.987435 0.15942972,0.15942972 0 0 1 -0.03086,0.08229 0.10800078,0.10800078 0 0 1 -0.08742,0.036 z"
         id="path36"
         style="fill:#cc473a;fill-opacity:1;stroke-width:1.18562" />
      <path
         class="cls-1"
         d="m 52.683651,45.121368 a 12.445804,12.445804 0 0 0 2.329732,0.149147 c 0.416573,0 0.81772,-0.06172 1.213723,-0.09772 a 5.2817523,5.2817523 0 0 1 1.141721,0 2.5303041,2.5303041 0 0 1 0.51429,0.133716 2.190873,2.190873 0 0 1 0.452575,0.22629 3.754313,3.754313 0 0 1 0.601718,0.514289 2.4583035,2.4583035 0 0 0 -0.792005,-1.229153 c -1.198294,-0.941151 -2.401732,0.468003 -5.106894,-0.113146 -1.578869,-0.339426 -2.628019,-1.131435 -3.168023,-0.632573 a 0.77143414,0.77143414 0 0 0 -0.210859,0.360002 8.7943495,8.7943495 0 0 0 1.136579,0.313717 c 0.555433,0.133716 1.188009,0.267432 1.887443,0.37543 z"
         id="path38"
         style="fill:#cc473a;fill-opacity:1;stroke-width:1.18562" />
      <path
         class="cls-1"
         d="m 58.309978,45.620229 a 2.0211576,2.0211576 0 0 0 -0.437146,-0.21086 2.6691622,2.6691622 0 0 0 -0.51429,-0.118284 5.4154678,5.4154678 0 0 0 -1.116008,0 c -0.39086,0.036 -0.797149,0.08742 -1.218867,0.102856 A 11.345225,11.345225 0 0 1 52.683651,45.229368 C 51.963646,45.10594 51.33107,44.951653 50.801352,44.807649 a 7.3131958,7.3131958 0 0 1 -1.121152,-0.354857 1.2600092,1.2600092 0 0 0 0,0.586293 c 0.113144,0.514288 0.62229,1.136578 5.369182,2.201157 3.044594,0.684003 3.543455,0.581144 3.8006,0.262289 a 1.5428683,1.5428683 0 0 0 0.15943,-1.326868 v 0 a 3.8263134,3.8263134 0 0 0 -0.699434,-0.555434 z"
         id="path40"
         style="fill:#cc473a;fill-opacity:1;stroke-width:1.18562" />
      <rect
         class="cls-1"
         x="11.156208"
         y="64.096596"
         width="0.27377012"
         height="2.5672402"
         transform="rotate(-35.272421)"
         id="rect42"
         style="fill:#cc473a;fill-opacity:1;stroke-width:1.19082" />
      <polygon
         class="cls-1"
         points="33.51,21.54 33.51,21.65 31.71,21.65 31.71,21.54 27.65,21.54 27.65,21.99 40.73,21.99 40.73,21.54 "
         id="polygon44"
         transform="matrix(0.51428944,0,0,0.51428944,29.026337,34.593863)"
         style="fill:#cc473a;fill-opacity:1;stroke-width:2.30535" />
      <rect
         class="cls-1"
         x="45.334454"
         y="45.671669"
         width="0.92572093"
         height="0.056571845"
         id="rect46"
         style="fill:#cc473a;fill-opacity:1;stroke-width:1.18562" />
      <path
         class="cls-1"
         d="m 73.460944,54.692295 c -0.02571,0.102856 -0.06172,0.241716 -0.12343,0.416573 a 4.0577437,4.0577437 0 0 1 -0.673718,1.229154 4.5051755,4.5051755 0 0 1 -1.028579,0.936007 c -0.154287,0.09771 -0.282859,0.16457 -0.375431,0.215999 l -0.144002,0.06685 0.154287,-0.05142 c 0.09257,-0.036 0.23143,-0.09257 0.396004,-0.174856 a 3.6000261,3.6000261 0 0 0 1.116008,-0.910294 3.35831,3.35831 0 0 0 0.632575,-1.296009 2.7257341,2.7257341 0 0 0 0.07715,-0.426862 1.1982944,1.1982944 0 0 0 0,-0.159431 z"
         id="path48"
         style="fill:#cc473a;fill-opacity:1;stroke-width:1.18562" />
      <path
         class="cls-1"
         d="m 72.314079,51.375127 a 3.7080269,3.7080269 0 0 0 -2.252587,0.236574 3.6463122,3.6463122 0 0 0 -0.828007,0.581148 2.2114446,2.2114446 0 0 1 0.848578,-0.169717 2.2320163,2.2320163 0 1 1 -1.861728,0.992579 c -0.149144,0.113146 -0.313716,0.23143 -0.514289,0.354859 -0.293146,0.195433 -0.601719,0.380577 -0.910293,0.550291 0,0.09257 -0.036,0.174857 -0.04629,0.252 0,0.200576 -0.04114,0.365146 -0.04629,0.473148 v 0.174857 a 1.6354405,1.6354405 0 0 1 0,-0.174857 3.8160277,3.8160277 0 0 1 0,-0.478286 1.3011523,1.3011523 0 0 1 0,-0.195433 l -0.267433,0.144004 c 0,0.05142 0,0.102856 0,0.154286 a 3.651455,3.651455 0 1 0 5.868042,-2.895453 z m 1.08515,3.749173 a 3.35831,3.35831 0 0 1 -0.632574,1.296009 3.6000261,3.6000261 0 0 1 -1.116009,0.910294 c -0.164574,0.08228 -0.303431,0.138854 -0.396004,0.174856 l -0.154286,0.05142 0.144001,-0.06686 c 0.09257,-0.05142 0.221145,-0.118285 0.375432,-0.215999 a 4.5051755,4.5051755 0 0 0 1.028577,-0.936007 4.0577437,4.0577437 0 0 0 0.673721,-1.229154 c 0.06172,-0.174857 0.09772,-0.313716 0.123429,-0.416574 l 0.03087,-0.154287 a 1.1982944,1.1982944 0 0 1 0,0.159431 2.7257341,2.7257341 0 0 1 -0.07714,0.426862 z"
         id="path50"
         style="fill:#cc473a;fill-opacity:1;stroke-width:1.18562" />
      <path
         class="cls-1"
         d="m 67.176328,53.58143 0.241716,-0.149143 0.123429,-0.07715 0.05657,-0.04115 c 0,0 0.04114,-0.036 0.05657,-0.036 a 12.481804,12.481804 0 0 0 1.357724,-1.028577 4.4228893,4.4228893 0 0 1 0.997721,-0.72001 4.2017447,4.2017447 0 0 1 3.013737,-0.08229 c -0.689148,-1.702298 -2.154872,-2.766877 -3.507454,-2.751445 a 7.2000523,7.2000523 0 0 1 -2.160014,-5.657184 l -1.928586,0.149143 a 1.213723,1.213723 0 0 0 -0.133715,0.185144 c -0.35486,0.606859 0.08742,1.445152 0.252001,1.79487 a 6.1714731,6.1714731 0 0 1 0.313717,4.345744 3.6000261,3.6000261 0 0 1 -1.22401,1.542872 c -1.542868,1.167437 -3.944599,1.095432 -5.256037,-0.06685 -0.08229,-0.07715 -1.188009,-1.074862 -0.936007,-1.841158 0.144001,-0.437144 0.684005,-0.714859 0.67372,-1.275437 a 0.96172131,0.96172131 0 0 0 -0.102856,-0.365147 0.76629126,0.76629126 0 0 1 -0.09257,0.154287 c -0.262287,0.313718 -0.761147,0.416575 -3.805742,-0.262283 -3.600025,-0.802296 -4.741748,-1.36287 -5.142895,-1.800016 a 5.1428945,5.1428945 0 0 0 -0.514288,0.288004 c -1.409154,0.889721 -2.761734,2.679448 -2.571448,4.114312 a 5.2303235,5.2303235 0 0 1 3.461171,-2.057154 c 2.838878,-0.354863 5.708612,1.944015 5.991472,5.142892 h -0.70972 a 1.0851507,1.0851507 0 0 0 -1.074865,1.069723 v -0.02058 a 1.0697221,1.0697221 0 0 0 1.069722,1.028578 h 3.44574 c 1.028578,0 2.113728,0.04115 3.168023,-0.036 0.339429,0 0.673719,-0.06685 1.028577,-0.118284 0.354861,-0.05142 0.678863,-0.113145 1.02858,-0.195432 a 9.5092112,9.5092112 0 0 0 0.987435,-0.30343 c 0.164574,-0.05657 0.324003,-0.123429 0.478291,-0.190288 a 4.7828918,4.7828918 0 0 0 0.462859,-0.221142 l 0.138858,-0.07715 0.354861,-0.190288 c 0.133714,-0.06172 0.298287,-0.154286 0.457717,-0.252001 z m 2.617733,-4.674892 0.164573,0.04115 c 0.06172,0 0.138858,0.036 0.216002,0.06685 a 4.4948898,4.4948898 0 0 1 0.545146,0.236575 4.777749,4.777749 0 0 1 0.612004,0.401143 4.9526072,4.9526072 0 0 1 0.514289,0.514289 5.1428945,5.1428945 0 0 1 0.35486,0.478291 c 0.04629,0.072 0.08229,0.138861 0.113144,0.195428 a 1.0645791,1.0645791 0 0 1 0.07715,0.154291 l 0.06686,0.133712 -0.08229,-0.123428 a 1.4297246,1.4297246 0 0 0 -0.09772,-0.138861 1.2445804,1.2445804 0 0 0 -0.133715,-0.180001 4.3303171,4.3303171 0 0 0 -0.380575,-0.442289 5.3434674,5.3434674 0 0 0 -1.080007,-0.894861 4.2583166,4.2583166 0 0 0 -0.51429,-0.272576 c -0.072,-0.036 -0.144001,-0.06172 -0.205715,-0.08742 l -0.15943,-0.06685 -0.149144,-0.0463 z m -19.928716,-2.957165 -0.174858,0.123433 c -0.072,0.05142 -0.149144,0.102856 -0.231431,0.169713 -0.169715,0.133716 -0.360002,0.298289 -0.565719,0.514288 a 7.9714862,7.9714862 0 0 0 -0.617146,0.668581 8.4703472,8.4703472 0 0 0 -0.514291,0.735431 c -0.144,0.241717 -0.26743,0.462859 -0.360002,0.653148 -0.05142,0.09257 -0.08742,0.180001 -0.123429,0.257145 -0.036,0.07715 -0.06172,0.144004 -0.08743,0.200571 l -0.06686,0.174862 0.05142,-0.180001 c 0,-0.05657 0.036,-0.128572 0.06686,-0.21086 0.03086,-0.08229 0.05657,-0.169718 0.09772,-0.267432 a 5.7446131,5.7446131 0 0 1 0.329145,-0.684005 5.9503291,5.9503291 0 0 1 0.514289,-0.761147 5.7548988,5.7548988 0 0 1 0.648005,-0.668579 5.4823254,5.4823254 0 0 1 0.596575,-0.457716 l 0.246859,-0.154287 0.190288,-0.102856 0.164572,-0.08743 z"
         id="path52"
         style="fill:#cc473a;fill-opacity:1;stroke-width:1.18562" />
      <path
         class="cls-1"
         d="m 67.983762,41.74763 a 3.8931711,3.8931711 0 0 0 -0.154286,-0.946293 c -0.04114,-0.118286 -0.072,-0.210859 -0.102857,-0.277717 a 1.2960093,1.2960093 0 0 0 -0.514289,0.12343 2.1754444,2.1754444 0 0 1 0.113144,0.205716 1.7742986,1.7742986 0 0 1 0.123429,0.42686 3.4971682,3.4971682 0 0 1 0.07714,0.648005 3.2554523,3.2554523 0 0 1 -0.102856,0.843434 1.6251546,1.6251546 0 0 0 0.51429,-0.08229 6.3463318,6.3463318 0 0 0 0.04629,-0.941149 z"
         id="path54"
         style="fill:#cc473a;fill-opacity:1;stroke-width:1.18562" />
      <path
         class="cls-1"
         d="m 68.626623,41.439056 a 1.0800078,1.0800078 0 0 0 -0.349716,-0.756005 0.87429204,0.87429204 0 0 0 -0.51429,-0.159431 v 0.04629 c 0.06172,0.108004 0.05657,0.159431 0.08229,0.195431 0.02571,0.036 0.210859,0 0.339431,0.08229 a 0.40628866,0.40628866 0 0 1 0.102856,0.51429 c -0.072,0.072 -0.185144,0 -0.252001,0.07715 a 0.22114446,0.22114446 0 0 0 0.036,0.293145 c 0.102856,0.06172 0.236574,-0.07715 0.308574,0 0.072,0.07715 0.03086,0.26743 -0.08229,0.401146 -0.113143,0.133715 -0.262287,0.169716 -0.293145,0.293145 0,0 0,0.04629 0,0.09772 0,0.05142 0,0.113143 0,0.149144 a 1.0285789,1.0285789 0 0 0 0.514291,-0.406288 1.1520084,1.1520084 0 0 0 0.108003,-0.828007 z"
         id="path56"
         style="fill:#cc473a;fill-opacity:1;stroke-width:1.18562" />
      <path
         class="cls-1"
         d="m 42.505863,44.565937 h -0.03086 v 0 c 0,0 -0.02572,0 -0.02572,0.04115 v 0.78686 c 0,0.036 0.04114,0.08743 0.072,0.08743 h 2.828593 v -0.915434 z"
         id="path58"
         style="fill:#cc473a;fill-opacity:1;stroke-width:1.18562" />
      <path
         class="cls-1"
         d="m 49.474485,44.565937 h -3.214309 v 0.930864 h 3.214309 c 0.03086,0 0.036,-0.05142 0.036,-0.08743 v -0.776577 c 0,-0.03087 -0.0051,-0.06686 -0.036,-0.06686 z"
         id="path60"
         style="fill:#cc473a;fill-opacity:1;stroke-width:1.18562" />
      <path
         class="cls-1"
         d="m 42.485292,42.308205 v 0 0 a 0.04114315,0.04114315 0 0 0 0,0.03086 v 0.81772 c 0,0 0.03086,0.05657 0.05142,0.05657 h 2.849164 v -0.905149 z"
         id="path62"
         style="fill:#cc473a;fill-opacity:1;stroke-width:1.18562" />
      <path
         class="cls-1"
         d="m 49.489914,42.308205 h -3.229738 v 0.925721 h 3.229738 c 0,0 0,-0.036 0,-0.05657 v -0.817718 c 0,0 0.02058,-0.05142 0,-0.05142 z"
         id="path64"
         style="fill:#cc473a;fill-opacity:1;stroke-width:1.18562" />
      <path
         class="cls-1"
         d="m 42.032717,41.207626 v 0 H 42.007 c 0,0 0,0 0,0.02572 v 0.822863 c 0,0 0.04629,0 0.06172,0 h 3.301739 v -0.848581 z"
         id="path66"
         style="fill:#cc473a;fill-opacity:1;stroke-width:1.18562" />
      <path
         class="cls-1"
         d="m 49.047624,41.207626 h -2.787448 v 0.869149 h 2.787448 c 0,0 0.05657,0 0.05657,0 v -0.822863 c 0,0 -0.02057,-0.04629 -0.05657,-0.04629 z"
         id="path68"
         style="fill:#cc473a;fill-opacity:1;stroke-width:1.18562" />
      <path
         class="cls-1"
         d="m 42.495577,40.101904 v 0 h -0.02572 a 0.06171473,0.06171473 0 0 0 0,0.04114 v 0.797148 a 0.08228631,0.08228631 0 0 0 0.06172,0.06685 h 2.838877 v -0.905149 z"
         id="path70"
         style="fill:#cc473a;fill-opacity:1;stroke-width:1.18562" />
      <path
         class="cls-1"
         d="m 49.484771,40.101904 h -3.224595 v 0.930863 h 3.224595 c 0,0 0,-0.04114 0,-0.06685 v -0.797149 c 0.02572,-0.02572 0.02572,-0.06686 0,-0.06686 z"
         id="path72"
         style="fill:#cc473a;fill-opacity:1;stroke-width:1.18562" />
      <path
         class="cls-1"
         d="m 45.293312,43.794504 c -0.02572,0 -0.04629,0.03086 -0.04629,0.08228 0,0.05142 0.02572,0.08229 0.05142,0.08229 0.02572,0 0.04629,-0.036 0.04629,-0.08229 0,-0.0463 -0.02058,-0.08228 -0.05142,-0.08228 z"
         id="path74"
         style="fill:#cc473a;fill-opacity:1;stroke-width:1.18562" />
      <path
         class="cls-1"
         d="m 49.479628,43.408783 h -3.219452 v 0.869151 h 3.219452 c 0.03086,0 0.03086,0 0.03086,0 v -0.812578 c 0,-0.03086 0,-0.05657 -0.03086,-0.05657 z"
         id="path76"
         style="fill:#cc473a;fill-opacity:1;stroke-width:1.18562" />
      <path
         class="cls-1"
         d="m 42.495577,43.408783 v 0 h -0.02572 a 0.0874292,0.0874292 0 0 0 0,0.036 v 0.786865 c 0,0 0.036,0 0.06172,0 h 2.838877 v -0.822862 z"
         id="path78"
         style="fill:#cc473a;fill-opacity:1;stroke-width:1.18562" />
      <path
         class="cls-1"
         d="m 46.599607,43.897361 a 0.03085737,0.03085737 0 0 0 -0.036,0.036 0.03600026,0.03600026 0 0 0 0.036,0.03086 c 0,0 0.04114,0 0.04114,0 v 0 c 0,0 -0.0103,-0.06686 -0.04114,-0.06686 z"
         id="path80"
         style="fill:#cc473a;fill-opacity:1;stroke-width:1.18562" />
      <polygon
         class="cls-1"
         points="36.79,24.83 34.71,21.84 35.02,21.61 37.1,24.6 "
         id="polygon82"
         transform="matrix(0.51428944,0,0,0.51428944,29.026337,34.593863)"
         style="fill:#cc473a;fill-opacity:1;stroke-width:2.30535" />
      <polygon
         class="cls-1"
         points="37.43,23.99 35.91,21.78 36.13,21.61 37.66,23.83 "
         id="polygon84"
         transform="matrix(0.51428944,0,0,0.51428944,29.026337,34.593863)"
         style="fill:#cc473a;fill-opacity:1;stroke-width:2.30535" />
      <path
         class="cls-1"
         d="M 46.100746,39.927045 H 45.4836 c 0,0 0,0 -0.036,0 l -0.036,0.02572 a 0.10285789,0.10285789 0 0 0 -0.02572,0.072 v 5.446327 c 0,0.05142 0.04114,0.08229 0.09772,0.08229 h 0.617146 c 0.05657,0 0.102856,-0.03087 0.102856,-0.08229 V 40.045337 A 0.12342947,0.12342947 0 0 0 46.100746,39.92705 Z m -0.30343,1.229152 a 0.08228631,0.08228631 0 1 1 0,-0.164572 0.08228631,0.08228631 0 0 1 0,0.164572 z m 0,-0.452575 a 0.08228631,0.08228631 0 0 1 -0.08229,-0.07715 0.08228631,0.08228631 0 0 1 0.08229,-0.08229 0.08228631,0.08228631 0 0 1 0.07714,0.08229 0.07714342,0.07714342 0 0 1 -0.07714,0.07715 z m 0,-0.401145 a 0.08228654,0.08228654 0 1 1 0,-0.164573 0.08228654,0.08228654 0 0 1 0,0.164573 z"
         id="path86"
         style="fill:#cc473a;fill-opacity:1;stroke-width:1.18562" />
      <polygon
         class="cls-1"
         points="27.45,7.76 27.21,7.89 28.09,9.47 28.4,9.47 "
         id="polygon88"
         transform="matrix(0.51428944,0,0,0.51428944,29.026337,34.593863)"
         style="fill:#cc473a;fill-opacity:1;stroke-width:2.30535" />
      <polygon
         class="cls-1"
         points="35.08,5.8 34.82,5.78 34.29,9.47 34.56,9.47 "
         id="polygon90"
         transform="matrix(0.51428944,0,0,0.51428944,29.026337,34.593863)"
         style="fill:#cc473a;fill-opacity:1;stroke-width:2.30535" />
      <polygon
         class="cls-1"
         points="30.64,5.82 30.37,5.87 31.05,9.42 31.32,9.38 "
         id="polygon92"
         transform="matrix(0.51428944,0,0,0.51428944,29.026337,34.593863)"
         style="fill:#cc473a;fill-opacity:1;stroke-width:2.30535" />
      <polygon
         class="cls-1"
         points="37.77,7.76 38,7.89 37.12,9.47 36.82,9.47 "
         id="polygon94"
         transform="matrix(0.51428944,0,0,0.51428944,29.026337,34.593863)"
         style="fill:#cc473a;fill-opacity:1;stroke-width:2.30535" />
    </g>
  </g>
</svg>
